<svg width="124" height="247" viewBox="0 0 124 247" fill="none" xmlns="http://www.w3.org/2000/svg">
<g clip-path="url(#clip0_3017_3328)">
<mask id="mask0_3017_3328" style="mask-type:luminance" maskUnits="userSpaceOnUse" x="-50" y="-52" width="348" height="349">
<path d="M-49.7422 118.896L119.858 296.496L297.858 126.496L128.258 -51.1039L-49.7422 118.896Z" fill="white"/>
</mask>
<g mask="url(#mask0_3017_3328)">
<g opacity="0.100006">
<path d="M208.535 34.4959C217.857 39.6219 217.132 44.3739 210.2 51.0619C194.973 65.7539 179.043 80.0559 165.973 96.5549C150.45 116.151 154.386 143.346 171.96 161.422C185.509 175.359 198.584 189.754 211.821 203.992C212.487 204.708 212.683 205.861 213.287 207.244L203.764 216.338C191.561 203.56 179.5 191.378 167.953 178.727C153.03 162.377 135.619 150.961 112.851 156.632C102.257 159.271 92.0201 165.91 83.2851 172.835C70.3521 183.087 58.8451 195.149 46.851 206.568C43.187 210.057 40.088 212.97 35.2631 207.924C30.616 203.064 33.1191 199.302 36.603 195.942C47.993 184.958 59.2011 173.729 71.2251 163.469C97.0301 141.448 99.2841 106.882 75.9191 82.5259C64.9691 71.1109 53.7741 59.9189 43.1561 48.2039C39.6811 44.3709 31.6841 40.7829 39.6061 33.5349C47.338 26.4619 50.519 34.4239 54.2551 38.1099C64.7651 48.4769 74.8161 59.3169 84.8811 70.1249C108.749 95.7579 137.572 97.8389 164.076 74.9629C177.696 63.2069 190.357 50.3419 203.511 38.0429C205.028 36.6239 206.928 35.6149 208.535 34.4959Z" fill="#808285"/>
<path d="M65.5275 138.224C67.2945 143.118 68.5975 146.728 70.3515 151.582C52.0475 158.834 34.4985 166.018 16.6875 172.482C14.9215 173.123 9.38845 169.351 9.39845 167.65C9.41645 164.348 11.3285 159.145 13.8635 158.08C30.3905 151.143 47.2955 145.104 65.5275 138.224Z" fill="#808285"/>
<path d="M64.7135 114.484C64.0825 120.119 63.6585 123.9 62.7785 131.755C42.2415 130.344 21.9205 128.948 0.480469 127.475C1.15047 122.349 1.64647 118.563 2.42547 112.608C22.3935 113.209 42.7775 113.823 64.7135 114.484Z" fill="#808285"/>
<path d="M108.886 63.1605C104.839 65.2355 101.436 66.9805 96.5621 69.4805C88.8671 49.7275 81.4201 30.6115 73.6211 10.5935C78.2691 8.76747 81.7931 7.38347 86.9851 5.34447C94.3711 24.8415 101.514 43.6995 108.886 63.1605Z" fill="#808285"/>
<path d="M68.1016 232.852C76.2436 214.157 83.5306 196.71 91.4896 179.574C93.9556 174.264 97.1386 175.01 106.026 182.263C97.8826 200.195 89.6296 218.368 81.0296 237.307C77.1476 235.969 73.5856 234.742 68.1016 232.852Z" fill="#808285"/>
<path d="M9.37891 80.1591C11.9259 67.4531 17.5289 66.9051 26.1739 71.1931C40.7949 78.4431 55.8099 84.8961 71.2279 91.9441C69.5569 96.3921 68.2139 99.9691 66.3559 104.914C46.9159 96.4681 28.1469 88.3141 9.37891 80.1591Z" fill="#808285"/>
<path d="M128.844 180.047C128.616 204.095 128.425 224.322 128.214 246.621C123.508 246.14 119.77 245.758 114.766 245.247C114.983 225.808 114.742 206.995 115.919 188.27C116.083 185.655 123.212 183.479 128.844 180.047Z" fill="#808285"/>
<path d="M119.254 0.401279C125.714 0.132278 129.226 -0.0147209 135.291 -0.26672C133.908 21.2683 132.612 41.4263 131.262 62.4413C127.77 62.5693 123.611 62.7223 119.766 62.8633C119.587 41.0453 119.424 21.1073 119.254 0.401279Z" fill="#808285"/>
</g>
</g>
</g>
<defs>
<clipPath id="clip0_3017_3328">
<rect width="124" height="247" fill="white"/>
</clipPath>
</defs>
</svg>
