<svg width="900" height="720" viewBox="0 0 900 720" fill="none" xmlns="http://www.w3.org/2000/svg">
  <defs>
    <filter id="locked-preview-blur" x="-5%" y="-5%" width="110%" height="110%">
      <feGaussianBlur stdDeviation="3.2"/>
    </filter>
  </defs>
  <g opacity="0.52" filter="url(#locked-preview-blur)" font-family="Arial, sans-serif" font-weight="700">
    <g font-size="22" fill="#8f9397">
      <text x="46" y="54">Arsenic</text>
      <text x="46" y="106">Cadmium</text>
      <text x="46" y="158">Antimony</text>
      <text x="46" y="210">Tellurium</text>
      <text x="46" y="262">Mercury</text>
      <text x="46" y="314">Thallium</text>
      <text x="46" y="366">Thorium</text>
      <text x="46" y="418">Uranium</text>
      <text x="46" y="558">Chromium</text>
      <text x="46" y="610">Lead</text>
    </g>

    <g transform="translate(185 28)">
      <g>
        <rect x="0" y="0" width="160" height="40" fill="#8d9782"/>
        <rect x="160" y="0" width="175" height="40" fill="#f8b609"/>
        <rect x="335" y="0" width="265" height="40" fill="#ab3f3f"/>
        <rect x="174" y="-3" width="10" height="46" fill="#3f3f43"/>
      </g>
      <g transform="translate(0 52)">
        <rect x="0" y="0" width="36" height="40" fill="#8d9782"/>
        <rect x="36" y="0" width="82" height="40" fill="#f8b609"/>
        <rect x="118" y="0" width="482" height="40" fill="#ab3f3f"/>
        <rect x="248" y="-3" width="10" height="46" fill="#3f3f43"/>
      </g>
      <g transform="translate(0 104)">
        <rect x="0" y="0" width="78" height="40" fill="#8d9782"/>
        <rect x="78" y="0" width="438" height="40" fill="#f8b609"/>
        <rect x="516" y="0" width="84" height="40" fill="#ab3f3f"/>
        <rect x="337" y="-3" width="10" height="46" fill="#3f3f43"/>
      </g>
      <g transform="translate(0 156)">
        <rect x="0" y="0" width="78" height="40" fill="#8d9782"/>
        <rect x="78" y="0" width="438" height="40" fill="#f8b609"/>
        <rect x="516" y="0" width="84" height="40" fill="#ab3f3f"/>
        <rect x="50" y="-3" width="10" height="46" fill="#3f3f43"/>
      </g>
      <g transform="translate(0 208)">
        <rect x="0" y="0" width="25" height="40" fill="#8d9782"/>
        <rect x="25" y="0" width="353" height="40" fill="#f8b609"/>
        <rect x="378" y="0" width="222" height="40" fill="#ab3f3f"/>
        <rect x="14" y="-3" width="10" height="46" fill="#3f3f43"/>
      </g>
      <g transform="translate(0 260)">
        <rect x="0" y="0" width="270" height="40" fill="#8d9782"/>
        <rect x="270" y="0" width="150" height="40" fill="#f8b609"/>
        <rect x="420" y="0" width="180" height="40" fill="#ab3f3f"/>
        <rect x="235" y="-3" width="10" height="46" fill="#3f3f43"/>
      </g>
      <g transform="translate(0 312)">
        <rect x="0" y="0" width="160" height="40" fill="#8d9782"/>
        <rect x="160" y="0" width="355" height="40" fill="#f8b609"/>
        <rect x="515" y="0" width="85" height="40" fill="#ab3f3f"/>
        <rect x="50" y="-3" width="10" height="46" fill="#3f3f43"/>
      </g>
      <g transform="translate(0 364)">
        <rect x="0" y="0" width="55" height="40" fill="#8d9782"/>
        <rect x="55" y="0" width="210" height="40" fill="#f8b609"/>
        <rect x="265" y="0" width="335" height="40" fill="#ab3f3f"/>
        <rect x="158" y="-3" width="10" height="46" fill="#3f3f43"/>
      </g>

      <g stroke="#7d7d7d" stroke-width="2" opacity="0.82">
        <path d="M0 424H600"/>
        <path d="M0 424V436"/>
        <path d="M80 424V436"/>
        <path d="M165 424V436"/>
        <path d="M250 424V436"/>
        <path d="M335 424V436"/>
        <path d="M420 424V436"/>
        <path d="M510 424V436"/>
        <path d="M600 424V436"/>
      </g>
      <g font-size="18" fill="#7e8083">
        <text x="-5" y="458">0</text>
        <text x="74" y="458">5</text>
        <text x="156" y="458">10</text>
        <text x="241" y="458">15</text>
        <text x="326" y="458">20</text>
        <text x="411" y="458">25</text>
        <text x="501" y="458">30</text>
        <text x="591" y="458">35</text>
      </g>
    </g>

    <g transform="translate(185 530)">
      <rect x="0" y="0" width="300" height="40" fill="#8d9782"/>
      <rect x="300" y="0" width="75" height="40" fill="#f8b609"/>
      <rect x="375" y="0" width="225" height="40" fill="#ab3f3f"/>
      <rect x="315" y="-3" width="10" height="46" fill="#3f3f43"/>
      <g transform="translate(0 52)">
        <rect x="0" y="0" width="375" height="40" fill="#8d9782"/>
        <rect x="375" y="0" width="100" height="40" fill="#f8b609"/>
        <rect x="475" y="0" width="125" height="40" fill="#ab3f3f"/>
        <rect x="275" y="-3" width="10" height="46" fill="#3f3f43"/>
      </g>
      <g stroke="#7d7d7d" stroke-width="2" opacity="0.82">
        <path d="M0 108H600"/>
        <path d="M0 108V120"/>
        <path d="M75 108V120"/>
        <path d="M150 108V120"/>
        <path d="M225 108V120"/>
        <path d="M300 108V120"/>
        <path d="M375 108V120"/>
        <path d="M450 108V120"/>
        <path d="M525 108V120"/>
        <path d="M600 108V120"/>
      </g>
      <g font-size="18" fill="#7e8083">
        <text x="-5" y="142">0</text>
        <text x="64" y="142">50</text>
        <text x="135" y="142">100</text>
        <text x="210" y="142">150</text>
        <text x="285" y="142">200</text>
        <text x="360" y="142">250</text>
        <text x="435" y="142">300</text>
        <text x="510" y="142">350</text>
        <text x="585" y="142">450</text>
      </g>
    </g>

    <g font-size="17" fill="#8f9397">
      <text x="802" y="48">10ppm</text>
      <text x="802" y="100">14ppm</text>
      <text x="802" y="152">20ppm</text>
      <text x="802" y="204">4ppm</text>
      <text x="802" y="256">1ppm</text>
      <text x="802" y="308">14ppm</text>
      <text x="802" y="360">3ppm</text>
      <text x="802" y="412">10ppm</text>
      <text x="802" y="558">250ppm</text>
      <text x="802" y="610">220ppm</text>
    </g>

    <g transform="translate(185 690)" font-size="16" fill="#8f9397">
      <rect x="0" y="-28" width="38" height="38" rx="5" fill="#8d9782"/>
      <text x="50" y="-15">Safe</text><text x="50" y="2">Levels</text>
      <rect x="140" y="-28" width="38" height="38" rx="5" fill="#f8b609"/>
      <text x="190" y="-15">Marginally</text><text x="190" y="2">Unsafe Levels</text>
      <rect x="340" y="-28" width="38" height="38" rx="5" fill="#ab3f3f"/>
      <text x="390" y="-15">Unsafe</text><text x="390" y="2">Levels</text>
      <rect x="490" y="-28" width="38" height="38" rx="5" fill="#3f3f43"/>
      <text x="540" y="-15">Your</text><text x="540" y="2">Levels</text>
    </g>
  </g>
  <path opacity="0.04" filter="url(#locked-preview-blur)" d="M785 690C822 717 866 708 901 662V720H748C756 705 769 694 785 690Z" fill="#7d7d7d"/>
</svg>
