<svg width="176" height="102" viewBox="0 0 176 102" fill="none" xmlns="http://www.w3.org/2000/svg">
<path d="M117.705 42.8526C114.923 42.8486 112.547 40.4216 112.556 37.5956C112.566 34.7686 114.962 32.3396 117.724 32.3586C120.525 32.3786 122.873 34.7806 122.863 37.6176C122.853 40.4706 120.501 42.8576 117.705 42.8526ZM81.5124 62.1216C83.7804 64.3976 83.9134 67.0916 81.9324 69.0646C80.0054 70.9816 77.2514 70.7576 74.9754 68.4916C73.2864 66.8106 71.6064 65.1206 69.9194 63.4386C69.8354 63.3556 69.7124 63.3106 69.3304 63.0806C67.6634 64.8246 65.9664 66.6506 64.2144 68.4216C61.8544 70.8076 59.1204 70.9986 57.1344 68.9726C55.1964 66.9946 55.4074 64.3486 57.6974 62.0346C59.3744 60.3416 61.0594 58.6556 62.7364 56.9636C62.8204 56.8786 62.8644 56.7556 63.0524 56.4406C61.2704 54.7006 59.4284 52.9336 57.6244 51.1296C55.3694 48.8746 55.2234 46.1306 57.2124 44.1786C59.1384 42.2896 61.8404 42.4416 64.0174 44.6396C65.8204 46.4606 67.5544 48.3506 69.5684 50.4736C71.5994 48.3326 73.3634 46.3966 75.2144 44.5456C77.3844 42.3746 80.0864 42.3016 82.0114 44.2686C83.8604 46.1556 83.7714 48.8186 81.6794 50.9406C79.8374 52.8086 77.9004 54.5816 75.7904 56.6046C77.8344 58.5696 79.7084 60.3106 81.5124 62.1216ZM173.915 91.1186C166.695 79.2746 159.487 67.4246 152.276 55.5756C150.144 57.5856 147.279 58.8196 144.125 58.8176C137.344 58.8126 132.118 53.4646 132.206 46.6196C132.274 41.3686 135.457 37.0506 139.987 35.3916C138.429 32.8306 136.869 30.2706 135.31 27.7096C120.702 3.70856 94.2294 -4.70844 71.3084 2.49757C73.1584 4.92157 72.8584 8.08356 70.3304 10.6486C67.9054 13.1076 65.3554 15.4426 62.5764 18.1046C65.2684 20.6936 67.7354 22.9856 70.1104 25.3686C73.0964 28.3666 73.2724 31.9126 70.6624 34.5096C68.1264 37.0336 64.5004 36.7396 61.5034 33.7556C59.2804 31.5416 57.0684 29.3176 54.8464 27.1036C54.7354 26.9936 54.5744 26.9346 54.0714 26.6316C51.8764 28.9286 49.6424 31.3316 47.3354 33.6636C44.2284 36.8046 40.6284 37.0566 38.0144 34.3896C37.4944 33.8586 37.0984 33.2896 36.8124 32.6976C35.7324 34.5296 34.6534 36.3616 33.5454 38.1746C22.8134 55.7346 12.0534 73.2776 1.3374 90.8476C0.751398 91.8076 0.249399 92.9296 0.0863968 94.0336C-0.552603 98.3786 2.4064 101.44 7.1924 101.442C33.9224 101.456 60.6524 101.449 87.3824 101.452C106.105 101.456 124.828 101.456 143.551 101.456C151.82 101.455 160.089 101.449 168.358 101.452C171.009 101.453 173.116 100.447 174.378 97.9666C175.578 95.6056 175.273 93.3466 173.915 91.1186Z" fill="#4C5441"/>
<path d="M156.048 46.5677C155.905 39.9797 150.811 34.7797 144.386 34.6607C142.829 34.6317 141.349 34.8937 139.988 35.3917C144.083 42.1207 148.181 48.8467 152.276 55.5757C154.659 53.3287 156.125 50.1137 156.048 46.5677Z" fill="#4C5441"/>
<path d="M132.208 46.6199C132.12 53.4649 137.345 58.8129 144.127 58.8179C147.281 58.8199 150.146 57.5859 152.277 55.5759C148.182 48.8479 144.084 42.1209 139.989 35.3919C135.458 37.0509 132.276 41.3689 132.208 46.6199Z" fill="#95A087"/>
<path d="M149.12 29.6127C151.899 29.6567 154.262 27.2557 154.274 24.3777C154.285 21.4957 151.951 19.1097 149.141 19.1297C146.33 19.1497 144.065 21.5717 144.13 24.4907C144.191 27.2997 146.403 29.5697 149.12 29.6127Z" fill="#4C5441"/>
<path d="M117.727 32.359C114.965 32.339 112.568 34.768 112.559 37.596C112.55 40.422 114.926 42.848 117.708 42.853C120.504 42.857 122.856 40.471 122.866 37.618C122.876 34.781 120.528 32.379 117.727 32.359Z" fill="#95A087"/>
<path d="M71.3107 2.49726C71.1457 2.28027 70.9687 2.06726 70.7697 1.86326C68.2347 -0.724735 64.6767 -0.629734 61.8197 2.22827C59.3837 4.66527 57.0607 7.21526 54.3867 10.0333C51.7347 7.23826 49.4527 4.75027 47.0787 2.35226C44.2117 -0.540737 40.6537 -0.742737 38.1187 1.74526C35.4997 4.31627 35.6917 7.92826 38.6607 10.8973C41.0367 13.2733 43.4617 15.5983 45.8067 17.8893C45.5597 18.3053 45.5017 18.4663 45.3917 18.5773C43.1837 20.8073 40.9657 23.0253 38.7577 25.2553C36.3567 27.6803 35.6977 30.3823 36.8147 32.6973C37.8527 30.9373 38.8927 29.1783 39.9627 27.4383C47.8287 14.6553 59.0627 6.34727 71.3107 2.49726Z" fill="#4C5441"/>
<path d="M47.3355 33.6633C49.6425 31.3313 51.8765 28.9283 54.0715 26.6313C54.5735 26.9343 54.7355 26.9933 54.8455 27.1033C57.0685 29.3173 59.2805 31.5423 61.5035 33.7553C64.5005 36.7393 68.1265 37.0333 70.6625 34.5103C73.2715 31.9133 73.0965 28.3663 70.1095 25.3693C67.7355 22.9853 65.2675 20.6933 62.5755 18.1053C65.3545 15.4423 67.9055 13.1073 70.3295 10.6483C72.8585 8.08329 73.1585 4.92129 71.3085 2.49729C59.0605 6.34729 47.8265 14.6553 39.9615 27.4383C38.8905 29.1773 37.8505 30.9373 36.8125 32.6973C37.0985 33.2903 37.4945 33.8583 38.0145 34.3893C40.6275 37.0563 44.2275 36.8043 47.3355 33.6633Z" fill="#95A087"/>
<path d="M82.0111 44.2679C80.0851 42.3019 77.3831 42.3739 75.2131 44.5449C73.3631 46.3959 71.5991 48.3329 69.5681 50.4729C67.5531 48.3499 65.8201 46.4599 64.0171 44.6399C61.8401 42.4419 59.1381 42.2889 57.2121 44.1789C55.2221 46.1309 55.3691 48.8749 57.6241 51.1299C59.4281 52.9339 61.2701 54.6999 63.0511 56.4399C62.8641 56.7559 62.8201 56.8789 62.7361 56.9629C61.0591 58.6559 59.3741 60.3409 57.6971 62.0349C55.4071 64.3479 55.1951 66.9939 57.1341 68.9729C59.1191 70.9979 61.8531 70.8069 64.2141 68.4209C65.9661 66.6499 67.6631 64.8249 69.3301 63.0799C69.7121 63.3099 69.8341 63.3549 69.9181 63.4389C71.6061 65.1209 73.2861 66.8099 74.9751 68.4909C77.2511 70.7569 80.0051 70.9809 81.9311 69.0639C83.9131 67.0919 83.7801 64.3979 81.5121 62.1219C79.7081 60.3109 77.8341 58.5699 75.7891 56.6039C77.9001 54.5819 79.8371 52.8089 81.6791 50.9409C83.7711 48.8189 83.8601 46.1559 82.0111 44.2679Z" fill="#95A087"/>
</svg>
