<svg width="118" height="133" viewBox="0 0 118 133" fill="none" xmlns="http://www.w3.org/2000/svg">
<g clip-path="url(#clip0_3017_3342)">
<g opacity="0.300003">
<path d="M80.9855 86.8965L105.129 54.9495C106.812 52.7215 107.541 49.9125 107.149 47.1465C106.68 43.8305 105.205 33.3045 104.738 30.0325C103.854 23.8445 102.941 17.4455 102.063 11.1485C102.009 10.7505 101.891 10.3325 101.766 9.88948L71.0625 14.1615L71.6375 18.2905C72.4375 24.0425 73.2435 29.7945 74.0495 35.5465C75.9495 49.1045 77.9135 63.1235 79.7645 76.9235C79.8895 77.8505 80.9625 85.9935 80.9855 86.8965Z" fill="#D1D3D4"/>
<path d="M226.669 41.2511C222.451 16.1171 197.905 -2.40994 171.951 -0.046936C157.512 1.27007 144.613 8.16106 135.63 19.3631L115.252 46.1631L87.3544 83.8981C87.3544 83.8981 85.3594 86.8371 80.5814 91.7851C80.5814 91.7851 73.5044 99.3211 63.0054 100.936C62.9294 100.949 62.8534 100.96 62.7774 100.972C62.7284 100.979 62.6804 100.988 62.6314 100.995C62.5904 101.001 62.5544 101.003 62.5134 101.008C57.4454 101.748 52.5164 100.72 48.4054 98.0081C43.2274 94.5931 39.8224 88.8881 38.8164 81.9461C36.8464 68.3531 34.9394 54.5201 33.0954 41.1431C32.2954 35.3471 31.4974 29.5521 30.6904 23.7571L30.6544 23.4971L16.5614 14.6851C15.2354 13.8561 13.5084 14.0831 12.4414 15.2261L-0.183594 28.7481C0.568405 34.1741 1.31041 39.6361 2.0314 44.9511C4.0484 59.8231 6.1344 75.2021 8.5224 90.2701C10.4834 102.641 17.3994 113.902 27.9984 121.977C38.5624 130.025 51.3064 133.804 63.8824 132.617C77.7354 131.306 90.1354 124.899 98.9584 114.522L98.9594 114.523L98.9854 114.49C99.2904 114.131 99.5914 113.768 99.8884 113.399C100.127 113.102 100.36 112.802 100.592 112.5L158.612 40.6321C163.554 34.6621 169.083 32.3751 169.083 32.3751C174.148 30.0361 181.313 30.7661 186.552 33.8761C191.908 37.0561 195.527 42.5751 196.479 49.0171C198.551 63.0371 200.513 77.3111 202.41 91.1151C203.228 97.0661 204.046 103.018 204.874 108.968L205.552 113.842L220.097 122.937C221.423 123.765 223.15 123.539 224.217 122.396L236.302 109.451C234.763 98.2711 234.092 93.1931 233.436 88.2371C231.393 72.7891 229.281 56.8151 226.669 41.2511Z" fill="#D1D3D4"/>
</g>
</g>
<defs>
<clipPath id="clip0_3017_3342">
<rect width="118" height="133" fill="white"/>
</clipPath>
</defs>
</svg>
