<svg width="139" height="126" viewBox="0 0 139 126" fill="none" xmlns="http://www.w3.org/2000/svg">
<path d="M96.738 54.9966C96.81 55.2466 96.888 55.4956 96.958 55.7466C101.499 72.1756 89.087 87.8386 72.183 87.7596C55.557 87.6826 43.213 72.3346 47.492 56.2896C48.337 53.1216 49.35 50.0326 50.499 47.0086C32.642 44.4906 14.51 44.7656 0 54.6686V125.225H138.2V47.3156C125.929 55.0656 111.447 56.3156 96.738 54.9966Z" fill="#44938F"/>
<path d="M96.7351 54.9966C92.6471 40.6726 85.3321 27.8476 76.0481 16.1946C72.9771 12.3416 71.6901 12.3256 68.6731 16.0616C61.0381 25.5206 54.7651 35.7826 50.4961 47.0086C56.7481 47.8906 62.9661 49.1116 68.9831 50.3866C77.9881 52.2926 87.4071 54.1606 96.7351 54.9966Z" fill="#44938F"/>
<path d="M72.1822 87.7595C89.0862 87.8385 101.498 72.1755 96.9572 55.7465C96.8872 55.4955 96.8092 55.2475 96.7372 54.9965C87.4092 54.1605 77.9892 52.2935 68.9852 50.3865C62.9682 49.1125 56.7502 47.8905 50.4982 47.0095C49.3492 50.0325 48.3362 53.1225 47.4912 56.2895C43.2122 72.3355 55.5562 87.6825 72.1822 87.7595Z" fill="#B1E5E2"/>
<path d="M81.4843 31.887L97.3913 2.06502C98.8193 -0.610985 102.62 -0.705978 104.179 1.89602L121.733 31.189C123.277 33.765 121.451 37.047 118.448 37.095L84.9883 37.623C82.0163 37.67 80.0853 34.509 81.4843 31.887Z" fill="#B1E5E2"/>
<path d="M104.215 30.7782C104.201 32.1932 103.05 33.3332 101.646 33.3232C100.214 33.3132 99.0808 32.1432 99.1018 30.6952C99.1208 29.3092 100.297 28.1702 101.686 28.1932C103.104 28.2162 104.229 29.3652 104.215 30.7782Z" fill="#44938F"/>
<path d="M101.665 11.1934C103.74 11.1984 105.413 13.0064 105.115 15.0554C104.878 16.6844 104.511 18.2964 104.141 19.9014C103.691 21.8574 103.178 23.7974 102.688 25.7434C102.542 26.3224 102.177 26.6314 101.668 26.6294C101.137 26.6274 100.771 26.3234 100.628 25.7314C99.8819 22.6354 99.1309 19.5414 98.4069 16.4414C98.2409 15.7294 98.0969 15.0054 98.1889 14.2564C98.4029 12.5184 99.9009 11.1894 101.665 11.1934Z" fill="#44938F"/>
</svg>
