<svg width="165" height="315" viewBox="0 0 165 315" fill="none" xmlns="http://www.w3.org/2000/svg">
<g clip-path="url(#clip0_551_2329)">
<path d="M98.6309 65.8422C140.149 61.1662 165.003 43.0612 166.252 0.47522C172.81 16.2232 175.779 35.5832 186.947 46.6912C197.875 57.5602 217.159 60.0172 237.479 68.0182C192.927 68.8332 169.902 89.5432 166.732 133.241C163.115 90.2962 142.253 67.7212 98.6309 65.8422Z" fill="#D1D1D1"/>
<path d="M0.361328 215.796C61.3453 208.927 97.8523 182.333 99.6863 119.782C109.319 142.913 113.68 171.35 130.084 187.666C146.135 203.63 174.461 207.24 204.307 218.993C138.868 220.19 105.047 250.608 100.391 314.794C95.0783 251.715 64.4343 218.556 0.361328 215.796Z" fill="#D1D1D1"/>
</g>
<defs>
<clipPath id="clip0_551_2329">
<rect width="165" height="315" fill="white" transform="matrix(1 0 0 -1 0 315)"/>
</clipPath>
</defs>
</svg>
