<svg width="196" height="275" viewBox="0 0 196 275" fill="none" xmlns="http://www.w3.org/2000/svg">
<mask id="mask0_3057_2895" style="mask-type:luminance" maskUnits="userSpaceOnUse" x="-30" y="-34" width="244" height="244">
<path d="M-30 84.8999L88.7 209.2L213.2 90.2L94.6 -34L-30 84.8999Z" fill="white"/>
</mask>
<g mask="url(#mask0_3057_2895)">
<g opacity="0.100006">
<path d="M150.743 25.884C157.264 29.47 156.757 32.794 151.908 37.473C141.256 47.75 130.112 57.755 120.969 69.297C110.11 83.006 112.863 102.03 125.157 114.675C134.635 124.424 143.782 134.495 153.042 144.455C153.508 144.956 153.645 145.762 154.068 146.729L147.406 153.092C138.869 144.152 130.432 135.631 122.354 126.781C111.915 115.343 99.7352 107.357 83.8072 111.324C76.3962 113.17 69.2352 117.815 63.1242 122.659C54.0772 129.831 46.0272 138.269 37.6372 146.257C35.0742 148.697 32.9062 150.736 29.5312 147.206C26.2802 143.806 28.0312 141.174 30.4682 138.823C38.4362 131.139 46.2772 123.285 54.6882 116.107C72.7402 100.703 74.3162 76.522 57.9722 59.484C50.3112 51.498 42.4802 43.669 35.0522 35.473C32.6222 32.792 27.0272 30.282 32.5692 25.212C37.9782 20.264 40.2032 25.834 42.8172 28.412C50.1692 35.664 57.2002 43.248 64.2412 50.809C80.9382 68.739 101.101 70.195 119.642 54.193C129.17 45.969 138.027 36.969 147.228 28.365C148.29 27.373 149.619 26.666 150.743 25.884Z" fill="#808285"/>
<path d="M50.7025 98.4475C51.9385 101.871 52.8505 104.397 54.0765 107.792C41.2725 112.865 28.9965 117.891 16.5365 122.413C15.3015 122.861 11.4305 120.223 11.4375 119.033C11.4505 116.723 12.7875 113.083 14.5605 112.338C26.1225 107.485 37.9485 103.261 50.7025 98.4475Z" fill="#808285"/>
<path d="M50.1332 81.8391C49.6912 85.7811 49.3952 88.4261 48.7792 93.9211C34.4122 92.9341 20.1972 91.9581 5.19922 90.9271C5.66822 87.3411 6.01422 84.6931 6.55922 80.5271C20.5282 80.9481 34.7872 81.3771 50.1332 81.8391Z" fill="#808285"/>
<path d="M81.0362 45.9366C78.2052 47.3886 75.8252 48.6086 72.4142 50.3576C67.0322 36.5396 61.8222 23.1666 56.3672 9.16364C59.6182 7.88564 62.0832 6.91763 65.7152 5.49163C70.8822 19.1306 75.8792 32.3226 81.0362 45.9366Z" fill="#808285"/>
<path d="M122.258 7.35535C125.5 8.66335 127.79 9.58735 131.006 10.8853C125.629 23.2753 120.653 35.5084 114.825 47.3204C113.981 49.0303 109.052 48.7243 106.013 49.3513L104.496 46.7673C110.306 33.8743 116.117 20.9824 122.258 7.35535Z" fill="#808285"/>
<path d="M134.03 92.0027C133.994 89.5587 133.955 86.8427 133.918 84.3077C148.532 84.6357 162.774 84.9557 177.661 85.2897C177.759 87.7457 177.864 90.3897 178.024 94.3877C163.148 93.5817 148.992 92.8137 134.03 92.0027Z" fill="#808285"/>
<path d="M52.5039 164.643C58.1999 151.565 63.2979 139.36 68.8649 127.372C70.5899 123.658 72.8169 124.18 79.0339 129.254C73.3369 141.798 67.5639 154.511 61.5479 167.759C58.8319 166.823 56.3409 165.965 52.5039 164.643Z" fill="#808285"/>
<path d="M11.4258 57.8278C13.2078 48.9388 17.1268 48.5558 23.1748 51.5548C33.4028 56.6268 43.9068 61.1418 54.6918 66.0718C53.5238 69.1828 52.5838 71.6858 51.2838 75.1458C37.6848 69.2368 24.5548 63.5318 11.4258 57.8278Z" fill="#808285"/>
<path d="M94.9925 127.704C94.8335 144.527 94.6995 158.676 94.5515 174.276C91.2595 173.939 88.6445 173.672 85.1445 173.315C85.2955 159.716 85.1275 146.555 85.9505 133.456C86.0655 131.627 91.0525 130.105 94.9925 127.704Z" fill="#808285"/>
<path d="M168.394 126.872C154.881 120.759 142.191 115.018 129.602 109.323C131.214 100.253 131.757 100.012 139.427 103.38C150.15 108.089 160.935 112.657 172.332 117.559C170.941 120.848 169.911 123.286 168.394 126.872Z" fill="#808285"/>
<path d="M88.2891 2.03333C92.8081 1.84533 95.2651 1.74233 99.5081 1.56533C98.5401 16.6303 97.6341 30.7323 96.6891 45.4333C94.2461 45.5233 91.3371 45.6303 88.6471 45.7283C88.5221 30.4663 88.4081 16.5183 88.2891 2.03333Z" fill="#808285"/>
<path d="M102.555 129.453C111.313 124.407 111.676 124.554 114.549 132.366C118.595 143.368 122.729 154.338 127.048 165.917C123.991 167.071 121.526 168.002 118.289 169.225C112.946 155.72 107.826 142.777 102.555 129.453Z" fill="#808285"/>
<path d="M133.553 76.3682C129.234 70.3712 129.35 67.1912 136.558 64.8852C147.754 61.3032 158.576 56.5542 170.019 52.1212C171.307 55.3992 172.281 57.8752 173.363 60.6282C171.64 61.5642 170.411 62.4192 169.054 62.9372C157.325 67.4142 145.573 71.8302 133.553 76.3682Z" fill="#808285"/>
</g>
</g>
<path d="M123.953 172.142V219.561C123.953 223.466 124.393 226.899 125.276 229.857C126.155 232.818 127.415 235.274 129.054 237.225C130.689 239.179 132.738 240.658 135.194 241.665C137.65 242.674 140.513 243.176 143.789 243.176C146.936 243.176 149.741 242.674 152.196 241.665C154.652 240.658 156.73 239.146 158.431 237.131C160.131 235.117 161.421 232.629 162.304 229.668C163.183 226.71 163.626 223.339 163.626 219.561V172.142H194.798V217.861C194.798 226.427 193.599 234.14 191.209 241.003C188.814 247.869 185.381 253.693 180.912 258.478C176.44 263.266 171.023 266.95 164.665 269.53C158.304 272.11 151.158 273.403 143.223 273.403C135.288 273.403 128.139 272.11 121.78 269.53C115.419 266.95 110.003 263.266 105.534 258.478C101.061 253.693 97.6284 247.869 95.2374 241.003C92.8434 234.14 91.6484 226.427 91.6484 217.861V172.142H123.953Z" fill="#942320"/>
<path d="M116.777 87.5635C116.777 101.815 105.224 113.369 90.972 113.369C76.721 113.369 65.168 101.815 65.168 87.5635C65.168 73.3125 76.721 61.7585 90.972 61.7585C105.224 61.7585 116.777 73.3125 116.777 87.5635Z" fill="#FDCF96"/>
<path d="M1.60938 121.066C1.60938 106.815 13.1624 95.2606 27.4144 95.2606C41.6654 95.2606 53.2184 106.815 53.2184 121.066C53.2184 135.317 41.6654 146.87 27.4144 146.87C13.1624 146.87 1.60938 135.317 1.60938 121.066Z" fill="#D8816C"/>
<path d="M81.7156 136.774C68.3936 136.774 57.4316 146.87 56.0586 159.828L107.38 159.879C106.03 146.896 95.0556 136.774 81.7156 136.774Z" fill="#95AA8C"/>
<mask id="mask1_3057_2895" style="mask-type:luminance" maskUnits="userSpaceOnUse" x="55" y="159" width="53" height="30">
<path d="M55.8984 162.53C55.8984 176.83 67.4984 188.43 81.6984 188.43C95.9984 188.43 107.498 176.83 107.498 162.53C107.498 161.63 107.498 160.73 107.398 159.83H56.0984C55.9984 160.73 55.8984 161.63 55.8984 162.53Z" fill="white"/>
</mask>
<g mask="url(#mask1_3057_2895)">
<path d="M-543.301 -1847.47H608.699V3766.7H-543.301V-1847.47Z" fill="url(#paint0_linear_3057_2895)"/>
</g>
<defs>
<linearGradient id="paint0_linear_3057_2895" x1="55.9096" y1="174.106" x2="107.519" y2="174.106" gradientUnits="userSpaceOnUse">
<stop stop-color="#C4C6C8"/>
<stop offset="0.0261905" stop-color="#C8CACB"/>
<stop offset="0.1" stop-color="#DADBDD"/>
<stop offset="0.182143" stop-color="#F1F1F2"/>
<stop offset="0.408333" stop-color="#EEEEEF"/>
<stop offset="0.488095" stop-color="#DEDFE0"/>
<stop offset="0.583333" stop-color="#D1D3D4"/>
<stop offset="0.690476" stop-color="#C9CBCD"/>
<stop offset="0.821429" stop-color="#C5C7C9"/>
<stop offset="1" stop-color="#C4C6C8"/>
</linearGradient>
</defs>
</svg>
